<?xml version="1.0" standalone="no"?>
<!DOCTYPE svg PUBLIC "-//W3C//DTD SVG 20010904//EN"
 "http://www.w3.org/TR/2001/REC-SVG-20010904/DTD/svg10.dtd">
<svg version="1.0" xmlns="http://www.w3.org/2000/svg"
 width="2706.000000pt" height="2626.000000pt" viewBox="0 0 2706.000000 2626.000000"
 preserveAspectRatio="xMidYMid meet">

<g transform="translate(0.000000,2626.000000) scale(0.100000,-0.100000)"
fill="#000000" stroke="none">
<path d="M19944 26083 c-1745 -2143 -2727 -4342 -2938 -6578 -52 -549 -52
-1209 0 -1760 110 -1173 431 -2316 967 -3451 531 -1124 1330 -2276 2168 -3128
l146 -148 314 276 c173 153 650 573 1061 934 411 361 747 659 747 662 1 3 -44
43 -99 89 -55 45 -182 156 -283 245 -1463 1306 -2473 2774 -3021 4395 -252
744 -397 1462 -462 2291 -14 170 -18 338 -19 685 0 468 8 635 46 1015 132
1320 509 2649 1101 3880 82 171 225 437 374 698 14 23 23 42 21 42 -2 0 -57
-66 -123 -147z"/>
<path d="M13870 21608 c-6 -40 -32 -174 -56 -298 -366 -1858 -1084 -3447
-2134 -4725 -276 -336 -682 -756 -990 -1026 -1338 -1171 -2972 -1957 -4885
-2349 -642 -131 -1381 -218 -1895 -221 -96 -1 -222 -4 -280 -8 l-105 -6 110
-18 c569 -93 1139 -157 1780 -199 259 -17 1319 -17 1565 0 1322 91 2356 314
3420 737 1952 776 3572 2158 4771 4072 580 926 1072 2028 1339 2999 62 226 62
207 -7 232 -58 22 -2613 882 -2618 882 -2 0 -9 -33 -15 -72z"/>
<path d="M12730 13044 c-747 -30 -1343 -98 -1995 -229 -240 -48 -537 -119
-665 -158 -39 -11 -45 -17 -42 -38 5 -47 545 -2734 551 -2741 4 -4 100 26 213
67 1063 381 2176 613 3233 675 223 13 860 13 1078 0 2042 -122 3921 -889 5588
-2282 974 -813 1837 -1816 2461 -2859 78 -131 143 -237 145 -236 3 4 -96 265
-175 462 -1017 2534 -2466 4441 -4318 5681 -553 370 -1141 681 -1749 924
-1033 413 -2115 649 -3305 720 -179 11 -867 20 -1020 14z"/>
<path d="M2280 7369 c-433 -37 -828 -136 -1200 -299 l-85 -37 -3 -174 c-2 -96
0 -265 3 -376 l7 -203 102 54 c336 180 708 303 1032 341 422 49 781 -28 1041
-223 266 -202 413 -539 413 -951 l0 -121 -439 0 c-242 0 -508 -5 -593 -10
-796 -54 -1371 -253 -1734 -602 -213 -206 -344 -451 -400 -753 -26 -139 -26
-461 -1 -590 116 -572 493 -962 1075 -1110 174 -44 324 -58 547 -52 352 10
611 70 877 202 260 129 515 352 684 599 l54 80 0 -407 0 -407 410 0 410 0 0
1603 c0 1007 -4 1647 -10 1722 -36 422 -143 774 -314 1034 -212 324 -502 522
-916 626 -182 46 -289 57 -580 60 -151 2 -322 -1 -380 -6z m1307 -2911 c-5
-338 -12 -395 -68 -588 -38 -135 -130 -322 -210 -430 -233 -317 -591 -498
-1023 -517 -316 -14 -549 67 -736 256 -67 67 -96 106 -132 177 -77 148 -93
220 -93 409 0 180 12 239 70 362 45 96 86 154 160 229 189 189 495 316 897
374 208 30 348 37 767 39 l373 1 -5 -312z"/>
<path d="M12280 7374 c-427 -49 -754 -159 -1045 -351 -563 -372 -905 -965
-1012 -1753 -25 -187 -25 -695 0 -884 89 -663 307 -1152 683 -1530 331 -333
746 -534 1279 -618 125 -20 176 -23 485 -22 261 0 382 4 495 17 360 42 652
109 913 209 l102 39 0 396 c0 217 -3 393 -7 391 -521 -252 -836 -339 -1273
-355 -562 -19 -997 131 -1321 456 -212 212 -346 460 -429 791 -24 94 -60 325
-60 383 l0 37 1745 0 1745 0 0 228 c0 820 -146 1379 -477 1825 -291 391 -715
640 -1233 722 -100 16 -504 29 -590 19z m345 -665 c167 -21 346 -86 483 -176
88 -58 225 -196 290 -292 175 -256 270 -555 316 -993 l6 -58 -1305 0 -1305 0
0 21 c0 51 34 243 64 363 201 792 749 1221 1451 1135z"/>
<path d="M16900 7314 c-19 -2 -78 -9 -130 -15 -437 -49 -822 -209 -1070 -446
-256 -243 -372 -531 -357 -887 20 -489 281 -826 927 -1196 69 -39 260 -139
425 -222 449 -226 580 -305 703 -428 131 -131 186 -261 186 -445 1 -126 -12
-191 -60 -290 -100 -210 -314 -351 -629 -412 -111 -22 -442 -24 -585 -4 -297
41 -595 128 -892 261 -61 27 -113 48 -115 46 -4 -3 -32 -639 -33 -727 l0 -37
118 -41 c239 -84 475 -140 747 -177 185 -26 695 -26 875 0 479 67 854 219
1123 453 225 197 375 464 422 756 19 119 19 359 0 470 -74 423 -333 734 -870
1042 -55 32 -289 151 -520 265 -557 276 -715 380 -823 548 -64 99 -77 148 -77
288 0 119 0 121 38 197 136 274 487 394 1017 347 313 -28 609 -103 897 -226
58 -25 107 -44 109 -42 7 8 42 734 35 741 -11 11 -342 93 -474 117 -261 48
-405 61 -682 65 -148 2 -286 1 -305 -1z"/>
<path d="M7960 7294 c-19 -2 -80 -9 -135 -15 -247 -25 -602 -121 -816 -220
-415 -192 -726 -456 -966 -819 -200 -304 -325 -657 -384 -1080 -18 -127 -18
-610 -1 -750 155 -1225 966 -2010 2201 -2130 134 -13 446 -13 608 1 311 25
590 80 886 175 101 33 107 37 107 62 1 42 -43 777 -46 781 -1 1 -60 -22 -131
-52 -335 -143 -674 -217 -996 -217 -912 0 -1542 555 -1662 1465 -19 142 -21
440 -5 570 52 421 206 753 474 1021 333 332 763 489 1296 471 334 -11 611 -74
885 -202 54 -25 99 -44 100 -43 3 4 66 739 65 765 0 19 -14 27 -112 58 -206
67 -391 107 -643 141 -105 14 -643 28 -725 18z"/>
</g>
</svg>
